<?xml version="1.0" standalone="no"?>
<!DOCTYPE svg PUBLIC "-//W3C//DTD SVG 20010904//EN"
 "http://www.w3.org/TR/2001/REC-SVG-20010904/DTD/svg10.dtd">
<svg version="1.0" xmlns="http://www.w3.org/2000/svg"
 width="626.000000pt" height="417.000000pt" viewBox="0 0 626.000000 417.000000"
 preserveAspectRatio="xMidYMid meet">

<g transform="translate(0.000000,417.000000) scale(0.100000,-0.100000)"
fill="#000000" stroke="none">
<path d="M2690 3103 c-583 -23 -769 -49 -945 -132 -84 -39 -214 -132 -277
-198 l-38 -38 45 -16 44 -16 41 51 c91 113 223 201 338 225 141 29 234 -5 284
-103 22 -45 17 -41 -26 18 -43 58 -100 79 -201 74 -106 -6 -203 -50 -293 -133
-58 -53 -129 -142 -120 -150 1 -1 32 -19 68 -39 122 -66 126 -67 453 -72 163
-2 297 -2 297 1 0 3 -18 65 -40 137 -66 221 -65 262 13 293 74 30 329 49 647
49 509 -1 632 -30 930 -221 152 -98 279 -187 280 -195 0 -4 -12 -5 -27 -3 -16
2 -158 10 -318 16 l-290 11 -55 52 c-112 106 -309 250 -420 306 -44 22 -50 23
-245 16 -204 -6 -410 -27 -455 -44 -45 -17 -53 -36 -47 -107 6 -67 53 -272 67
-294 6 -10 112 -11 521 -2 283 6 697 14 922 17 224 4 407 10 407 14 0 11 -182
148 -309 234 -275 185 -434 229 -864 241 -100 3 -213 7 -252 8 -38 2 -99 2
-135 0z m-595 -378 c14 -13 25 -28 25 -33 0 -5 -48 -11 -107 -14 -73 -4 -121
-11 -148 -23 l-40 -18 95 -9 c52 -4 124 -7 159 -6 l65 3 10 49 c13 60 38 77
29 19 -3 -21 -11 -54 -17 -73 l-11 -35 -120 3 c-256 5 -287 16 -289 92 -1 63
17 70 187 70 133 0 139 -1 162 -25z"/>
<path d="M4281 2689 c-32 -35 -26 -42 34 -37 44 4 55 2 51 -9 -4 -8 2 -13 15
-13 14 0 19 5 16 14 -4 10 2 16 16 18 22 3 22 3 -3 20 -14 9 -44 20 -66 24
-35 5 -44 3 -63 -17z"/>
<path d="M1220 2672 c-113 -38 -179 -83 -230 -157 -38 -55 -38 -62 0 -35 39
28 101 36 140 20 43 -18 110 -96 147 -171 17 -35 67 -163 111 -284 125 -343
119 -334 227 -355 81 -16 577 -127 640 -143 43 -11 50 -17 53 -40 2 -15 2 -27
-1 -27 -2 0 -195 39 -428 86 -233 48 -436 89 -451 91 -32 6 -51 26 -46 47 2
12 15 10 78 -9 41 -13 76 -23 77 -21 2 2 -15 16 -38 31 -59 42 -125 119 -142
168 -9 23 -32 98 -51 165 -61 209 -92 278 -150 339 -47 47 -57 53 -94 53 -32
0 -49 -7 -77 -32 -50 -43 -70 -88 -97 -209 -30 -141 -32 -399 -4 -504 27 -103
68 -187 116 -239 54 -58 99 -72 160 -51 23 8 75 15 114 15 87 0 136 13 176 46
l30 26 448 -102 c246 -56 455 -106 466 -112 10 -5 51 -40 91 -78 143 -132 200
-141 531 -86 177 29 246 36 430 41 167 5 277 15 464 41 135 18 315 43 400 54
85 11 198 26 250 35 52 8 219 33 370 55 258 37 345 56 416 93 24 12 33 26 42
67 7 28 12 62 12 76 0 24 0 24 -88 -20 -48 -24 -105 -49 -127 -55 -79 -22
-1152 -151 -1258 -151 -56 0 -230 9 -387 20 -157 11 -298 20 -314 20 -16 0
-27 3 -24 6 3 3 172 6 374 8 l369 2 375 47 c206 25 484 60 617 76 212 26 252
34 325 63 l83 34 6 49 c24 201 40 369 37 399 l-3 36 -49 -35 c-27 -19 -53 -35
-57 -35 -5 0 -46 25 -91 56 l-83 57 -135 -6 c-74 -4 -310 -18 -525 -33 -439
-29 -372 -14 -570 -128 -58 -34 -90 -46 -120 -46 -73 0 -399 40 -442 55 -47
15 -219 123 -248 155 -35 38 -6 32 90 -20 123 -66 164 -77 357 -92 176 -13
173 -14 271 56 30 22 63 37 90 40 41 5 805 42 1087 52 l145 6 48 -31 c54 -35
51 -36 120 28 20 19 37 40 37 46 0 6 -11 27 -25 46 l-24 36 -78 -27 c-134 -47
-126 -48 -145 19 -12 40 -31 74 -63 109 -42 47 -70 64 -187 116 -26 12 -90 20
-209 27 -94 6 -174 8 -177 5 -3 -4 2 -6 11 -6 49 0 216 -73 345 -151 74 -45
202 -139 202 -149 0 -3 -17 -4 -37 -2 -76 7 -695 84 -950 118 -433 57 -656 84
-660 80 -3 -2 10 -7 27 -11 38 -8 247 -90 345 -135 84 -39 222 -118 231 -132
8 -12 -49 -9 -421 22 -316 27 -438 41 -450 53 -7 6 8 7 45 3 149 -17 537 -47
573 -44 l42 3 -80 48 c-135 80 -405 187 -585 232 -209 52 -274 57 -820 53
l-506 -3 -69 36 c-39 19 -103 53 -144 75 -65 34 -83 39 -150 41 -53 2 -93 -3
-131 -15z m394 -188 c9 -8 16 -26 16 -38 0 -27 -43 -74 -76 -82 -74 -19 -141
79 -82 120 30 21 121 21 142 0z m1137 -61 c106 -52 203 -181 255 -336 30 -89
94 -397 83 -397 -8 0 -6 -5 -69 161 -82 216 -166 367 -238 430 -129 114 -274
82 -355 -77 -9 -17 -32 -90 -53 -162 -20 -73 -40 -132 -44 -132 -10 0 -3 128
11 218 15 95 45 165 95 221 90 101 206 128 315 74z m-1604 -125 c31 -29 78
-126 99 -203 9 -33 18 -116 21 -185 4 -103 1 -142 -16 -219 -36 -164 -76 -221
-159 -229 -46 -4 -51 -2 -90 35 -49 47 -97 144 -117 239 -19 88 -19 259 0 346
27 131 95 237 160 250 30 6 75 -9 102 -34z m1581 -67 c43 -22 119 -97 109
-108 -4 -3 -17 3 -30 15 -35 33 -92 52 -156 53 -99 2 -156 -40 -215 -158 -104
-205 -57 -574 93 -745 47 -53 129 -98 178 -98 102 0 175 74 229 230 26 74 26
285 1 380 -31 118 -87 238 -87 188 0 -25 -93 -207 -103 -201 -25 16 30 173 77
216 l26 24 -28 37 c-41 55 -79 76 -138 76 -28 0 -66 -5 -84 -12 -29 -10 -31
-12 -14 -18 10 -4 56 -5 102 -2 70 4 82 3 82 -11 0 -16 -69 -35 -140 -38 -55
-2 -59 -1 -73 27 -9 17 -17 23 -21 15 -9 -13 29 -116 81 -219 20 -40 33 -75
29 -79 -14 -15 -83 71 -131 164 -31 61 -33 34 -4 -80 20 -80 21 -89 7 -151
-17 -74 -11 -78 13 -8 15 46 39 68 39 37 0 -8 -9 -32 -19 -53 -26 -51 -52
-142 -40 -142 5 0 26 9 46 20 73 39 86 20 19 -27 -25 -18 -49 -41 -56 -52 -9
-18 -8 -21 12 -18 18 2 24 -6 36 -47 l14 -49 43 92 c24 50 48 91 54 91 22 0
20 -21 -9 -66 -39 -62 -47 -107 -26 -150 14 -30 20 -34 53 -34 46 0 102 -15
128 -34 35 -26 7 -29 -52 -7 l-58 21 28 -25 c34 -31 28 -45 -21 -45 -45 1 -81
19 -97 50 l-13 23 -6 -21 c-5 -13 -16 -22 -28 -22 -19 0 -20 4 -14 43 5 30 3
38 -4 27 -9 -13 -12 -12 -26 5 -29 38 -75 135 -91 198 -13 46 -17 105 -18 227
l0 166 38 76 c60 122 144 179 241 163 56 -10 74 -20 123 -72 101 -106 173
-348 159 -534 -20 -264 -127 -422 -286 -422 -127 0 -244 110 -310 291 -40 111
-53 209 -47 359 4 104 9 142 31 203 42 119 96 187 191 239 33 17 122 13 163
-8z m-1130 -197 c133 -30 508 -122 635 -155 21 -6 37 -16 37 -24 0 -8 -3 -15
-7 -15 -9 0 -674 154 -768 178 -48 13 -71 23 -73 35 -5 22 -4 22 176 -19z
m1203 -2 c-5 -15 -19 -50 -33 -77 -14 -28 -33 -74 -42 -102 -10 -29 -22 -56
-28 -59 -6 -4 -8 1 -5 12 4 11 13 49 21 87 18 79 60 167 80 167 11 0 13 -7 7
-28z m-61 -334 c0 -38 -3 -49 -10 -38 -13 20 -13 90 0 90 6 0 10 -24 10 -52z
m178 30 c-4 -11 -36 -23 -110 -42 -32 -7 -38 12 -12 38 19 20 128 23 122 4z
m2417 2 c-4 -6 -29 -22 -56 -36 -45 -22 -101 -31 -556 -84 -775 -91 -870 -100
-1049 -100 -133 0 -172 3 -202 17 l-37 17 85 7 c47 4 146 7 220 8 145 1 306
15 1025 86 407 41 466 49 510 70 56 26 69 30 60 15z m-2645 -14 c0 -8 5 -16
11 -18 19 -6 0 -48 -21 -48 -24 0 -37 44 -20 65 16 19 30 19 30 1z m235 -86
c9 -15 -43 -31 -89 -28 -64 5 -57 26 11 31 32 2 61 4 65 5 4 1 10 -3 13 -8z
m-117 -142 c27 -51 57 -107 68 -125 27 -46 10 -52 -32 -12 -39 38 -89 135 -99
192 -10 61 10 43 63 -55z"/>
<path d="M1475 2470 c-4 -6 22 -10 72 -10 54 0 73 3 63 10 -20 13 -127 13
-135 0z"/>
<path d="M1466 2416 c8 -20 59 -39 88 -32 13 3 34 15 47 26 l24 19 -37 1 c-27
0 -38 -4 -38 -15 0 -8 -7 -15 -15 -15 -9 0 -12 6 -9 15 5 12 -2 15 -30 15 -26
0 -34 -4 -30 -14z"/>
<path d="M1004 2256 c-32 -32 -48 -76 -22 -60 6 4 17 -1 25 -11 11 -16 13 -16
13 -3 0 9 3 24 6 32 5 12 2 15 -10 10 -11 -4 -15 -2 -11 8 6 15 56 48 73 48
17 0 73 -51 66 -61 -3 -5 -1 -9 4 -9 12 0 31 -43 49 -110 10 -41 14 -105 12
-247 -2 -106 -6 -193 -10 -193 -22 0 -81 139 -72 168 9 23 20 12 26 -25 3 -21
11 -51 18 -68 13 -27 14 -18 17 104 1 73 0 136 -4 140 -3 3 -12 -3 -20 -13
-11 -15 -17 -17 -26 -8 -9 9 -4 21 20 51 31 38 40 62 25 61 -5 -1 -24 -23 -43
-50 -19 -28 -39 -50 -45 -50 -13 0 -65 64 -92 114 l-22 41 5 -55 c9 -99 14
-115 49 -154 41 -45 44 -54 10 -32 -34 23 -39 21 -64 -25 -16 -28 -20 -44 -13
-51 7 -7 16 -2 27 16 24 37 32 33 36 -18 2 -24 1 -42 -3 -39 -5 2 -8 12 -8 21
0 15 -1 15 -16 0 -19 -19 -22 -64 -5 -81 8 -8 11 -7 11 6 0 26 20 20 21 -5 1
-17 4 -14 13 13 12 39 45 93 52 86 3 -2 -4 -28 -16 -56 -11 -28 -20 -62 -20
-75 0 -33 35 -73 70 -81 36 -8 37 -14 9 -49 -26 -33 -49 -33 -88 0 -34 29 -39
44 -15 44 12 0 15 6 10 23 -3 12 -6 27 -6 32 -1 6 -8 -6 -16 -25 l-15 -34 -19
28 c-10 16 -16 35 -13 42 3 8 1 14 -5 14 -15 0 -45 119 -45 180 0 58 19 267
28 310 4 18 0 15 -11 -10 -44 -96 -54 -310 -20 -438 17 -61 67 -151 109 -193
73 -74 151 -2 193 176 19 82 18 294 -1 370 -20 78 -66 176 -96 203 -36 34 -84
29 -125 -12z m112 -359 c-7 -36 -11 -41 -25 -32 -12 7 -15 58 -5 68 3 3 13 3
21 0 11 -4 13 -14 9 -36z"/>
<path d="M1080 2236 c0 -2 7 -7 16 -10 8 -3 12 -2 9 4 -6 10 -25 14 -25 6z"/>
<path d="M1073 2193 c-30 -6 -29 -19 3 -40 20 -13 30 -14 44 -5 17 10 19 8 18
-28 0 -40 -18 -47 -18 -7 -1 20 -2 20 -11 4 -10 -16 -13 -15 -45 13 -19 16
-36 30 -38 30 -2 0 2 -17 10 -37 7 -21 13 -44 14 -51 0 -22 31 -82 41 -82 5 0
14 11 19 26 6 14 24 43 41 64 l31 39 -22 30 c-19 27 -52 54 -62 50 -2 -1 -13
-4 -25 -6z"/>
<path d="M970 1954 c0 -5 7 -19 15 -30 8 -10 15 -14 15 -8 0 5 -7 19 -15 30
-8 10 -15 14 -15 8z"/>
<path d="M1060 1571 c0 -5 5 -13 10 -16 6 -3 10 -2 10 4 0 5 -4 13 -10 16 -5
3 -10 2 -10 -4z"/>
<path d="M4303 2623 c9 -2 23 -2 30 0 6 3 -1 5 -18 5 -16 0 -22 -2 -12 -5z"/>
<path d="M4851 2515 c106 -39 158 -84 205 -178 15 -29 28 -54 30 -56 6 -6 144
40 144 48 0 15 -122 102 -176 127 -28 12 -89 34 -136 48 -88 27 -128 34 -67
11z"/>
</g>
</svg>
